<svg width="250" height="183" viewBox="0 0 250 183" fill="none" xmlns="http://www.w3.org/2000/svg">
<g clip-path="url(#clip0_4732_1574)">
<path d="M145.625 32.5845C150.31 32.5845 154.108 28.7826 154.108 24.0926C154.108 19.4027 150.31 15.6008 145.625 15.6008C140.939 15.6008 137.141 19.4027 137.141 24.0926C137.141 28.7826 140.939 32.5845 145.625 32.5845Z" fill="#F2F2F2"/>
<path d="M211.436 158.613C224.046 149 230.069 132.844 226.298 117.433C226.204 117.05 226.106 116.668 226.002 116.287C223.502 107.139 217.317 98.4448 208.304 95.5218C200.735 93.0675 192.474 94.9548 184.579 93.9789C169.079 92.0629 157.063 79.51 148.608 66.367C140.152 53.2239 133.654 38.5121 122.419 27.654C103.9 9.75626 73.691 5.90287 50.7299 17.553C27.7689 29.2031 13.143 55.0498 13.7668 80.8093C14.3905 106.569 29.6682 131.197 51.8552 144.263C60.0058 149.064 69.4327 152.464 78.8144 151.274C86.9548 150.242 94.3513 145.864 102.453 144.564C115.192 142.52 127.849 148.285 138.867 155.003C149.884 161.721 160.527 169.684 173.047 172.798C185.204 175.822 200.265 167.13 211.436 158.613Z" fill="#F2F2F2"/>
<path d="M193.318 18.0939C193.042 17.9094 192.762 17.7345 192.486 17.5564C184.495 12.441 175.93 8.2853 166.968 5.17516L164.89 33.8686H151.717V0.986599C150.888 0.814858 150.052 0.652658 149.217 0.5V33.8686H133.562C124.944 33.8686 116.678 30.4418 110.585 24.342C104.491 18.2423 101.067 9.96921 101.067 1.34284C100.228 1.52412 99.3958 1.7181 98.5633 1.92482V33.8686H85.8126L83.8331 6.50775C74.6235 10.0432 65.8802 14.6924 57.7979 20.352C57.6581 20.4474 57.5183 20.546 57.3817 20.6414C56.6795 21.1343 55.9868 21.6368 55.2974 22.1457V131.611H92.8758L92.2118 122.404L88.5578 71.8519H162.142L158.488 122.404L157.824 131.611H194.986V19.2007C194.433 18.8254 193.877 18.4565 193.318 18.0939ZM98.5633 63.5034H87.9542L85.9937 36.3747H98.5633V63.5034ZM149.217 63.5034H131.398V62.9659C131.398 62.7076 131.347 62.4517 131.248 62.213C131.149 61.9744 131.004 61.7575 130.822 61.575C130.639 61.3924 130.422 61.2477 130.184 61.1491C129.945 61.0506 129.689 61 129.431 61.0005H121.685C121.427 61.0004 121.172 61.0511 120.933 61.1499C120.695 61.2486 120.479 61.3934 120.296 61.5759C120.114 61.7584 119.969 61.9752 119.871 62.2137C119.772 62.4522 119.721 62.7078 119.721 62.9659V63.5034H101.067V36.3747H149.217V63.5034ZM151.717 63.5034V36.3747H164.709L162.749 63.5034H151.717Z" fill="#2F2E41"/>
<path d="M0 138.621C2.76024 141.895 5.74576 144.972 8.9347 147.828L241.065 148.146C244.254 145.29 247.24 142.213 250 138.939L0 138.621Z" fill="#539356"/>
<path d="M157.415 109.139V136.396C157.416 136.744 157.554 137.077 157.799 137.322C158.044 137.568 158.377 137.706 158.724 137.706H199.078C199.425 137.706 199.758 137.568 200.003 137.322C200.248 137.077 200.386 136.744 200.387 136.396V109.139C200.386 108.792 200.248 108.46 200.002 108.214C199.757 107.969 199.424 107.831 199.078 107.831H158.724C158.377 107.831 158.045 107.969 157.8 108.214C157.554 108.46 157.416 108.792 157.415 109.139Z" fill="#2F2E41"/>
<path d="M158.362 109.478V136.06C158.362 136.246 158.436 136.424 158.567 136.555C158.698 136.686 158.876 136.76 159.062 136.76H198.742C198.927 136.76 199.105 136.686 199.236 136.555C199.367 136.424 199.441 136.246 199.441 136.06V109.478C199.441 109.293 199.368 109.114 199.237 108.983C199.106 108.851 198.928 108.777 198.742 108.777H159.062C158.876 108.777 158.698 108.851 158.567 108.983C158.436 109.114 158.362 109.293 158.362 109.478Z" fill="#539356"/>
<path d="M156.571 141.712C156.645 141.805 156.739 141.88 156.846 141.931C156.953 141.982 157.07 142.009 157.189 142.008H200.398C200.516 142.008 200.633 141.981 200.74 141.93C200.846 141.879 200.94 141.805 201.015 141.713C201.089 141.622 201.142 141.514 201.17 141.399C201.198 141.284 201.2 141.165 201.175 141.049L200.505 137.86C200.477 137.73 200.417 137.609 200.331 137.508C200.244 137.407 200.134 137.329 200.01 137.282C199.92 137.246 199.824 137.228 199.727 137.228H157.857C157.76 137.228 157.665 137.246 157.575 137.282C157.451 137.329 157.34 137.407 157.254 137.508C157.167 137.609 157.108 137.73 157.08 137.86L156.409 141.049C156.385 141.165 156.387 141.284 156.415 141.399C156.443 141.514 156.497 141.621 156.571 141.712Z" fill="#2F2E41"/>
<path d="M198.245 138.602H199.266C199.351 138.602 199.421 138.532 199.421 138.447V137.958C199.421 137.872 199.351 137.803 199.266 137.803H198.245C198.159 137.803 198.09 137.872 198.09 137.958V138.447C198.09 138.532 198.159 138.602 198.245 138.602Z" fill="#539356"/>
<path d="M195.583 138.602H196.604C196.689 138.602 196.759 138.532 196.759 138.447V137.958C196.759 137.872 196.689 137.803 196.604 137.803H195.583C195.497 137.803 195.428 137.872 195.428 137.958V138.447C195.428 138.532 195.497 138.602 195.583 138.602Z" fill="#539356"/>
<path d="M192.921 138.602H193.942C194.028 138.602 194.097 138.532 194.097 138.447V137.958C194.097 137.872 194.028 137.803 193.942 137.803H192.921C192.836 137.803 192.766 137.872 192.766 137.958V138.447C192.766 138.532 192.836 138.602 192.921 138.602Z" fill="#539356"/>
<path d="M190.26 138.602H191.28C191.366 138.602 191.436 138.532 191.436 138.447V137.958C191.436 137.872 191.366 137.803 191.28 137.803H190.26C190.174 137.803 190.105 137.872 190.105 137.958V138.447C190.105 138.532 190.174 138.602 190.26 138.602Z" fill="#539356"/>
<path d="M187.598 138.602H188.619C188.704 138.602 188.774 138.532 188.774 138.447V137.958C188.774 137.872 188.704 137.803 188.619 137.803H187.598C187.513 137.803 187.443 137.872 187.443 137.958V138.447C187.443 138.532 187.513 138.602 187.598 138.602Z" fill="#539356"/>
<path d="M184.937 138.602H185.957C186.043 138.602 186.112 138.532 186.112 138.447V137.958C186.112 137.872 186.043 137.803 185.957 137.803H184.937C184.851 137.803 184.781 137.872 184.781 137.958V138.447C184.781 138.532 184.851 138.602 184.937 138.602Z" fill="#539356"/>
<path d="M182.275 138.602H183.296C183.381 138.602 183.451 138.532 183.451 138.447V137.958C183.451 137.872 183.381 137.803 183.296 137.803H182.275C182.189 137.803 182.12 137.872 182.12 137.958V138.447C182.12 138.532 182.189 138.602 182.275 138.602Z" fill="#539356"/>
<path d="M179.613 138.602H180.634C180.72 138.602 180.789 138.532 180.789 138.447V137.958C180.789 137.872 180.72 137.803 180.634 137.803H179.613C179.528 137.803 179.458 137.872 179.458 137.958V138.447C179.458 138.532 179.528 138.602 179.613 138.602Z" fill="#539356"/>
<path d="M176.951 138.602H177.972C178.058 138.602 178.127 138.532 178.127 138.447V137.958C178.127 137.872 178.058 137.803 177.972 137.803H176.951C176.866 137.803 176.796 137.872 176.796 137.958V138.447C176.796 138.532 176.866 138.602 176.951 138.602Z" fill="#539356"/>
<path d="M174.29 138.602H175.31C175.396 138.602 175.466 138.532 175.466 138.447V137.958C175.466 137.872 175.396 137.803 175.31 137.803H174.29C174.204 137.803 174.135 137.872 174.135 137.958V138.447C174.135 138.532 174.204 138.602 174.29 138.602Z" fill="#539356"/>
<path d="M171.628 138.602H172.649C172.735 138.602 172.804 138.532 172.804 138.447V137.958C172.804 137.872 172.735 137.803 172.649 137.803H171.628C171.543 137.803 171.473 137.872 171.473 137.958V138.447C171.473 138.532 171.543 138.602 171.628 138.602Z" fill="#539356"/>
<path d="M168.967 138.602H169.987C170.073 138.602 170.142 138.532 170.142 138.447V137.958C170.142 137.872 170.073 137.803 169.987 137.803H168.967C168.881 137.803 168.811 137.872 168.811 137.958V138.447C168.811 138.532 168.881 138.602 168.967 138.602Z" fill="#539356"/>
<path d="M166.305 138.602H167.326C167.411 138.602 167.481 138.532 167.481 138.447V137.958C167.481 137.872 167.411 137.803 167.326 137.803H166.305C166.219 137.803 166.15 137.872 166.15 137.958V138.447C166.15 138.532 166.219 138.602 166.305 138.602Z" fill="#539356"/>
<path d="M163.643 138.602H164.664C164.75 138.602 164.819 138.532 164.819 138.447V137.958C164.819 137.872 164.75 137.803 164.664 137.803H163.643C163.558 137.803 163.488 137.872 163.488 137.958V138.447C163.488 138.532 163.558 138.602 163.643 138.602Z" fill="#539356"/>
<path d="M160.982 138.602H162.002C162.088 138.602 162.157 138.532 162.157 138.447V137.958C162.157 137.872 162.088 137.803 162.002 137.803H160.982C160.896 137.803 160.826 137.872 160.826 137.958V138.447C160.826 138.532 160.896 138.602 160.982 138.602Z" fill="#539356"/>
<path d="M158.32 138.602H159.341C159.426 138.602 159.496 138.532 159.496 138.447V137.958C159.496 137.872 159.426 137.803 159.341 137.803H158.32C158.234 137.803 158.165 137.872 158.165 137.958V138.447C158.165 138.532 158.234 138.602 158.32 138.602Z" fill="#539356"/>
<path d="M198.276 139.934H199.297C199.382 139.934 199.452 139.865 199.452 139.779V139.29C199.452 139.204 199.382 139.135 199.297 139.135H198.276C198.191 139.135 198.121 139.204 198.121 139.29V139.779C198.121 139.865 198.191 139.934 198.276 139.934Z" fill="#539356"/>
<path d="M195.615 139.934H196.635C196.721 139.934 196.79 139.865 196.79 139.779V139.29C196.79 139.204 196.721 139.135 196.635 139.135H195.615C195.529 139.135 195.459 139.204 195.459 139.29V139.779C195.459 139.865 195.529 139.934 195.615 139.934Z" fill="#539356"/>
<path d="M192.953 139.934H193.974C194.059 139.934 194.129 139.865 194.129 139.779V139.29C194.129 139.204 194.059 139.135 193.974 139.135H192.953C192.867 139.135 192.798 139.204 192.798 139.29V139.779C192.798 139.865 192.867 139.934 192.953 139.934Z" fill="#539356"/>
<path d="M190.291 139.934H191.312C191.398 139.934 191.467 139.865 191.467 139.779V139.29C191.467 139.204 191.398 139.135 191.312 139.135H190.291C190.206 139.135 190.136 139.204 190.136 139.29V139.779C190.136 139.865 190.206 139.934 190.291 139.934Z" fill="#539356"/>
<path d="M187.63 139.934H188.65C188.736 139.934 188.805 139.865 188.805 139.779V139.29C188.805 139.204 188.736 139.135 188.65 139.135H187.63C187.544 139.135 187.475 139.204 187.475 139.29V139.779C187.475 139.865 187.544 139.934 187.63 139.934Z" fill="#539356"/>
<path d="M184.968 139.934H185.989C186.074 139.934 186.144 139.865 186.144 139.779V139.29C186.144 139.204 186.074 139.135 185.989 139.135H184.968C184.882 139.135 184.813 139.204 184.813 139.29V139.779C184.813 139.865 184.882 139.934 184.968 139.934Z" fill="#539356"/>
<path d="M182.306 139.934H183.327C183.412 139.934 183.482 139.865 183.482 139.779V139.29C183.482 139.204 183.412 139.135 183.327 139.135H182.306C182.221 139.135 182.151 139.204 182.151 139.29V139.779C182.151 139.865 182.221 139.934 182.306 139.934Z" fill="#539356"/>
<path d="M179.645 139.934H180.665C180.751 139.934 180.82 139.865 180.82 139.779V139.29C180.82 139.204 180.751 139.135 180.665 139.135H179.645C179.559 139.135 179.489 139.204 179.489 139.29V139.779C179.489 139.865 179.559 139.934 179.645 139.934Z" fill="#539356"/>
<path d="M176.983 139.934H178.004C178.089 139.934 178.159 139.865 178.159 139.779V139.29C178.159 139.204 178.089 139.135 178.004 139.135H176.983C176.897 139.135 176.828 139.204 176.828 139.29V139.779C176.828 139.865 176.897 139.934 176.983 139.934Z" fill="#539356"/>
<path d="M174.321 139.934H175.342C175.428 139.934 175.497 139.865 175.497 139.779V139.29C175.497 139.204 175.428 139.135 175.342 139.135H174.321C174.236 139.135 174.166 139.204 174.166 139.29V139.779C174.166 139.865 174.236 139.934 174.321 139.934Z" fill="#539356"/>
<path d="M171.66 139.934H172.68C172.766 139.934 172.835 139.865 172.835 139.779V139.29C172.835 139.204 172.766 139.135 172.68 139.135H171.66C171.574 139.135 171.505 139.204 171.505 139.29V139.779C171.505 139.865 171.574 139.934 171.66 139.934Z" fill="#539356"/>
<path d="M168.998 139.934H170.019C170.104 139.934 170.174 139.865 170.174 139.779V139.29C170.174 139.204 170.104 139.135 170.019 139.135H168.998C168.912 139.135 168.843 139.204 168.843 139.29V139.779C168.843 139.865 168.912 139.934 168.998 139.934Z" fill="#539356"/>
<path d="M166.337 139.934H167.357C167.443 139.934 167.512 139.865 167.512 139.779V139.29C167.512 139.204 167.443 139.135 167.357 139.135H166.337C166.251 139.135 166.181 139.204 166.181 139.29V139.779C166.181 139.865 166.251 139.934 166.337 139.934Z" fill="#539356"/>
<path d="M163.675 139.934H164.695C164.781 139.934 164.85 139.865 164.85 139.779V139.29C164.85 139.204 164.781 139.135 164.695 139.135H163.675C163.589 139.135 163.52 139.204 163.52 139.29V139.779C163.52 139.865 163.589 139.934 163.675 139.934Z" fill="#539356"/>
<path d="M161.013 139.934H162.034C162.119 139.934 162.189 139.865 162.189 139.779V139.29C162.189 139.204 162.119 139.135 162.034 139.135H161.013C160.927 139.135 160.858 139.204 160.858 139.29V139.779C160.858 139.865 160.927 139.934 161.013 139.934Z" fill="#539356"/>
<path d="M158.351 139.934H159.372C159.458 139.934 159.527 139.865 159.527 139.779V139.29C159.527 139.204 159.458 139.135 159.372 139.135H158.351C158.266 139.135 158.196 139.204 158.196 139.29V139.779C158.196 139.865 158.266 139.934 158.351 139.934Z" fill="#539356"/>
<path d="M176.185 141.533H186.521C186.607 141.533 186.676 141.463 186.676 141.377V140.889C186.676 140.803 186.607 140.733 186.521 140.733H176.185C176.099 140.733 176.029 140.803 176.029 140.889V141.377C176.029 141.463 176.099 141.533 176.185 141.533Z" fill="#539356"/>
<path d="M165.234 114.592H164.33C164.056 114.592 163.834 114.814 163.834 115.089C163.834 115.363 164.056 115.585 164.33 115.585H165.234C165.507 115.585 165.73 115.363 165.73 115.089C165.73 114.814 165.507 114.592 165.234 114.592Z" fill="white"/>
<path d="M175.567 114.592H174.663C174.39 114.592 174.167 114.814 174.167 115.089C174.167 115.363 174.39 115.585 174.663 115.585H175.567C175.841 115.585 176.063 115.363 176.063 115.089C176.063 114.814 175.841 114.592 175.567 114.592Z" fill="white"/>
<path d="M178.495 114.592H177.591C177.318 114.592 177.095 114.814 177.095 115.089C177.095 115.363 177.318 115.585 177.591 115.585H178.495C178.769 115.585 178.991 115.363 178.991 115.089C178.991 114.814 178.769 114.592 178.495 114.592Z" fill="white"/>
<path d="M172.756 114.509H167.141C166.867 114.509 166.645 114.732 166.645 115.006C166.645 115.28 166.867 115.502 167.141 115.502H172.756C173.03 115.502 173.252 115.28 173.252 115.006C173.252 114.732 173.03 114.509 172.756 114.509Z" fill="white"/>
<path d="M186.534 114.509H180.919C180.645 114.509 180.423 114.732 180.423 115.006C180.423 115.28 180.645 115.502 180.919 115.502H186.534C186.808 115.502 187.031 115.28 187.031 115.006C187.031 114.732 186.808 114.509 186.534 114.509Z" fill="white"/>
<path d="M167.989 116.833H167.086C166.812 116.833 166.59 117.056 166.59 117.33C166.59 117.604 166.812 117.826 167.086 117.826H167.989C168.263 117.826 168.485 117.604 168.485 117.33C168.485 117.056 168.263 116.833 167.989 116.833Z" fill="white"/>
<path d="M178.323 116.833H177.419C177.145 116.833 176.923 117.056 176.923 117.33C176.923 117.604 177.145 117.826 177.419 117.826H178.323C178.597 117.826 178.819 117.604 178.819 117.33C178.819 117.056 178.597 116.833 178.323 116.833Z" fill="white"/>
<path d="M181.251 116.833H180.347C180.073 116.833 179.851 117.056 179.851 117.33C179.851 117.604 180.073 117.826 180.347 117.826H181.251C181.525 117.826 181.747 117.604 181.747 117.33C181.747 117.056 181.525 116.833 181.251 116.833Z" fill="white"/>
<path d="M175.512 116.751H169.896C169.622 116.751 169.4 116.973 169.4 117.247C169.4 117.521 169.622 117.743 169.896 117.743H175.512C175.786 117.743 176.008 117.521 176.008 117.247C176.008 116.973 175.786 116.751 175.512 116.751Z" fill="white"/>
<path d="M189.29 116.751H183.674C183.401 116.751 183.178 116.973 183.178 117.247C183.178 117.521 183.401 117.743 183.674 117.743H189.29C189.564 117.743 189.786 117.521 189.786 117.247C189.786 116.973 189.564 116.751 189.29 116.751Z" fill="white"/>
<path d="M170.745 119.074H169.841C169.567 119.074 169.345 119.297 169.345 119.571C169.345 119.845 169.567 120.067 169.841 120.067H170.745C171.019 120.067 171.241 119.845 171.241 119.571C171.241 119.297 171.019 119.074 170.745 119.074Z" fill="white"/>
<path d="M181.078 119.074H180.175C179.901 119.074 179.679 119.297 179.679 119.571C179.679 119.845 179.901 120.067 180.175 120.067H181.078C181.352 120.067 181.575 119.845 181.575 119.571C181.575 119.297 181.352 119.074 181.078 119.074Z" fill="white"/>
<path d="M184.006 119.074H183.103C182.829 119.074 182.607 119.297 182.607 119.571C182.607 119.845 182.829 120.067 183.103 120.067H184.006C184.28 120.067 184.502 119.845 184.502 119.571C184.502 119.297 184.28 119.074 184.006 119.074Z" fill="white"/>
<path d="M178.268 118.992H172.652C172.378 118.992 172.156 119.214 172.156 119.488C172.156 119.762 172.378 119.985 172.652 119.985H178.268C178.542 119.985 178.764 119.762 178.764 119.488C178.764 119.214 178.542 118.992 178.268 118.992Z" fill="white"/>
<path d="M192.046 118.992H186.43C186.156 118.992 185.934 119.214 185.934 119.488C185.934 119.762 186.156 119.985 186.43 119.985H192.046C192.32 119.985 192.542 119.762 192.542 119.488C192.542 119.214 192.32 118.992 192.046 118.992Z" fill="white"/>
<path d="M173.5 121.316H172.597C172.323 121.316 172.101 121.538 172.101 121.812C172.101 122.086 172.323 122.308 172.597 122.308H173.5C173.774 122.308 173.996 122.086 173.996 121.812C173.996 121.538 173.774 121.316 173.5 121.316Z" fill="white"/>
<path d="M183.834 121.316H182.931C182.657 121.316 182.435 121.538 182.435 121.812C182.435 122.086 182.657 122.308 182.931 122.308H183.834C184.108 122.308 184.33 122.086 184.33 121.812C184.33 121.538 184.108 121.316 183.834 121.316Z" fill="white"/>
<path d="M186.762 121.316H185.858C185.584 121.316 185.362 121.538 185.362 121.812C185.362 122.086 185.584 122.308 185.858 122.308H186.762C187.036 122.308 187.258 122.086 187.258 121.812C187.258 121.538 187.036 121.316 186.762 121.316Z" fill="white"/>
<path d="M181.023 121.233H175.408C175.134 121.233 174.912 121.455 174.912 121.729C174.912 122.003 175.134 122.226 175.408 122.226H181.023C181.297 122.226 181.519 122.003 181.519 121.729C181.519 121.455 181.297 121.233 181.023 121.233Z" fill="white"/>
<path d="M175.567 130.227H174.663C174.39 130.227 174.167 130.449 174.167 130.724C174.167 130.998 174.39 131.22 174.663 131.22H175.567C175.841 131.22 176.063 130.998 176.063 130.724C176.063 130.449 175.841 130.227 175.567 130.227Z" fill="white"/>
<path d="M178.495 130.227H177.591C177.318 130.227 177.095 130.449 177.095 130.724C177.095 130.998 177.318 131.22 177.591 131.22H178.495C178.769 131.22 178.991 130.998 178.991 130.724C178.991 130.449 178.769 130.227 178.495 130.227Z" fill="white"/>
<path d="M186.534 130.31H180.919C180.645 130.31 180.423 130.532 180.423 130.806C180.423 131.081 180.645 131.303 180.919 131.303H186.534C186.808 131.303 187.031 131.081 187.031 130.806C187.031 130.532 186.808 130.31 186.534 130.31Z" fill="white"/>
<path d="M165.234 130.227H164.33C164.056 130.227 163.834 130.449 163.834 130.724C163.834 130.998 164.056 131.22 164.33 131.22H165.234C165.507 131.22 165.73 130.998 165.73 130.724C165.73 130.449 165.507 130.227 165.234 130.227Z" fill="white"/>
<path d="M172.756 130.31H167.141C166.867 130.31 166.645 130.532 166.645 130.806C166.645 131.081 166.867 131.303 167.141 131.303H172.756C173.03 131.303 173.252 131.081 173.252 130.806C173.252 130.532 173.03 130.31 172.756 130.31Z" fill="white"/>
<path d="M167.989 127.986H167.086C166.812 127.986 166.59 128.208 166.59 128.483C166.59 128.757 166.812 128.979 167.086 128.979H167.989C168.263 128.979 168.485 128.757 168.485 128.483C168.485 128.208 168.263 127.986 167.989 127.986Z" fill="white"/>
<path d="M178.323 127.986H177.419C177.145 127.986 176.923 128.208 176.923 128.483C176.923 128.757 177.145 128.979 177.419 128.979H178.323C178.597 128.979 178.819 128.757 178.819 128.483C178.819 128.208 178.597 127.986 178.323 127.986Z" fill="white"/>
<path d="M181.251 127.986H180.347C180.073 127.986 179.851 128.208 179.851 128.483C179.851 128.757 180.073 128.979 180.347 128.979H181.251C181.525 128.979 181.747 128.757 181.747 128.483C181.747 128.208 181.525 127.986 181.251 127.986Z" fill="white"/>
<path d="M175.512 128.069H169.896C169.622 128.069 169.4 128.291 169.4 128.565C169.4 128.839 169.622 129.062 169.896 129.062H175.512C175.786 129.062 176.008 128.839 176.008 128.565C176.008 128.291 175.786 128.069 175.512 128.069Z" fill="white"/>
<path d="M170.745 125.745H169.841C169.567 125.745 169.345 125.967 169.345 126.241C169.345 126.516 169.567 126.738 169.841 126.738H170.745C171.019 126.738 171.241 126.516 171.241 126.241C171.241 125.967 171.019 125.745 170.745 125.745Z" fill="white"/>
<path d="M181.078 125.745H180.175C179.901 125.745 179.679 125.967 179.679 126.241C179.679 126.516 179.901 126.738 180.175 126.738H181.078C181.352 126.738 181.575 126.516 181.575 126.241C181.575 125.967 181.352 125.745 181.078 125.745Z" fill="white"/>
<path d="M184.006 125.745H183.103C182.829 125.745 182.607 125.967 182.607 126.241C182.607 126.516 182.829 126.738 183.103 126.738H184.006C184.28 126.738 184.502 126.516 184.502 126.241C184.502 125.967 184.28 125.745 184.006 125.745Z" fill="white"/>
<path d="M178.268 125.828H172.652C172.378 125.828 172.156 126.05 172.156 126.324C172.156 126.598 172.378 126.821 172.652 126.821H178.268C178.542 126.821 178.764 126.598 178.764 126.324C178.764 126.05 178.542 125.828 178.268 125.828Z" fill="white"/>
<path d="M173.5 123.504H172.597C172.323 123.504 172.101 123.726 172.101 124C172.101 124.274 172.323 124.497 172.597 124.497H173.5C173.774 124.497 173.996 124.274 173.996 124C173.996 123.726 173.774 123.504 173.5 123.504Z" fill="white"/>
<path d="M183.834 123.504H182.931C182.657 123.504 182.435 123.726 182.435 124C182.435 124.274 182.657 124.497 182.931 124.497H183.834C184.108 124.497 184.33 124.274 184.33 124C184.33 123.726 184.108 123.504 183.834 123.504Z" fill="white"/>
<path d="M186.762 123.504H185.858C185.584 123.504 185.362 123.726 185.362 124C185.362 124.274 185.584 124.497 185.858 124.497H186.762C187.036 124.497 187.258 124.274 187.258 124C187.258 123.726 187.036 123.504 186.762 123.504Z" fill="white"/>
<path d="M181.023 123.587H175.408C175.134 123.587 174.912 123.809 174.912 124.083C174.912 124.357 175.134 124.58 175.408 124.58H181.023C181.297 124.58 181.519 124.357 181.519 124.083C181.519 123.809 181.297 123.587 181.023 123.587Z" fill="white"/>
<path d="M160.43 156.492L156.188 149.781L169.502 139.158L174.997 133.064C175.711 132.272 176.62 131.682 177.633 131.352C178.647 131.022 179.729 130.964 180.771 131.184C181.814 131.403 182.781 131.893 183.575 132.604C184.369 133.315 184.963 134.222 185.297 135.235C185.793 136.736 185.686 138.37 185 139.794C184.314 141.218 183.103 142.319 181.621 142.865L172.931 146.07L160.43 156.492Z" fill="#FFB6B6"/>
<path d="M60.9065 107.832V140.45H83.7357V107.832C83.7361 107.597 83.6613 107.369 83.5224 107.18C83.3834 106.991 83.1876 106.852 82.9636 106.782C82.8581 106.747 82.7475 106.73 82.6364 106.732H62.009C61.8644 106.731 61.7212 106.759 61.5875 106.815C61.4538 106.87 61.3323 106.951 61.2299 107.053C61.1275 107.155 61.0463 107.277 60.9908 107.41C60.9353 107.544 60.9066 107.687 60.9065 107.832ZM69.8158 119.04C69.8217 118.397 70.0811 117.782 70.5375 117.329C70.9939 116.877 71.6103 116.623 72.2528 116.623C72.8952 116.623 73.5117 116.877 73.9681 117.329C74.4245 117.782 74.6839 118.397 74.6898 119.04V122.824C74.6865 123.469 74.4283 124.086 73.9717 124.541C73.515 124.996 72.897 125.251 72.2528 125.251C71.6086 125.251 70.9906 124.996 70.5339 124.541C70.0773 124.086 69.8191 123.469 69.8158 122.824V119.04Z" fill="#2F2E41"/>
<path d="M60.8367 139.407V142.552C60.8372 142.715 60.9019 142.871 61.0167 142.987C61.1315 143.102 61.2871 143.168 61.4499 143.169H83.1925C83.3554 143.168 83.5114 143.103 83.6263 142.987C83.7412 142.872 83.8057 142.715 83.8057 142.552V139.407H60.8367Z" fill="#539356"/>
<path d="M24.9929 58.6886V118.244C24.9935 119.003 25.295 119.731 25.8311 120.268C26.3673 120.804 27.0943 121.106 27.8525 121.107H116.024C116.782 121.106 117.509 120.804 118.045 120.268C118.581 119.731 118.883 119.003 118.884 118.244V58.6886C118.882 57.9303 118.58 57.2036 118.044 56.6677C117.508 56.1318 116.781 55.8304 116.024 55.8294H27.8525C27.095 55.8304 26.3686 56.1318 25.8327 56.6677C25.2967 57.2036 24.9947 57.9303 24.9929 58.6886Z" fill="#2F2E41"/>
<path d="M27.0615 59.4296V117.51C27.0622 117.915 27.2235 118.304 27.5099 118.591C27.7964 118.877 28.1847 119.039 28.5898 119.04H115.29C115.695 119.039 116.084 118.877 116.37 118.591C116.656 118.304 116.818 117.915 116.818 117.51V59.4296C116.818 59.0236 116.657 58.6342 116.371 58.3468C116.084 58.0594 115.696 57.8975 115.29 57.8967H28.5898C28.1842 57.8976 27.7955 58.0594 27.509 58.3468C27.2225 58.6342 27.0616 59.0236 27.0615 59.4296Z" fill="white"/>
<path d="M43.1516 142.956C43.2399 143.067 43.3521 143.156 43.4797 143.217C43.6074 143.278 43.7473 143.31 43.8888 143.309H95.4698C95.6109 143.309 95.7502 143.277 95.8775 143.216C96.0048 143.156 96.1169 143.067 96.2058 142.958C96.2947 142.848 96.358 142.72 96.3912 142.583C96.4244 142.445 96.4266 142.302 96.3976 142.164L95.5969 138.357C95.5637 138.202 95.4923 138.058 95.3891 137.937C95.2858 137.816 95.1541 137.724 95.0059 137.667C94.8987 137.625 94.7844 137.603 94.6692 137.603H44.6863C44.571 137.603 44.4568 137.625 44.3495 137.667C44.2013 137.724 44.0696 137.816 43.9664 137.937C43.8631 138.057 43.7917 138.202 43.7585 138.357L42.9578 142.164C42.9293 142.302 42.9319 142.445 42.9655 142.582C42.999 142.719 43.0626 142.847 43.1516 142.956Z" fill="#2F2E41"/>
<path d="M112.476 65.8975H31.3512C31.2668 65.8956 31.1866 65.8608 31.1276 65.8004C31.0687 65.7401 31.0356 65.659 31.0356 65.5746C31.0356 65.4901 31.0687 65.4091 31.1276 65.3487C31.1866 65.2884 31.2668 65.2535 31.3512 65.2516H112.476C112.561 65.2535 112.641 65.2884 112.7 65.3487C112.759 65.4091 112.792 65.4901 112.792 65.5746C112.792 65.659 112.759 65.7401 112.7 65.8004C112.641 65.8608 112.561 65.8956 112.476 65.8975Z" fill="#539356"/>
<path d="M36.8736 63.6029C37.9177 63.6029 38.7642 62.7367 38.7642 61.6682C38.7642 60.5997 37.9177 59.7336 36.8736 59.7336C35.8294 59.7336 34.9829 60.5997 34.9829 61.6682C34.9829 62.7367 35.8294 63.6029 36.8736 63.6029Z" fill="#539356"/>
<path d="M43.4048 63.6029C44.449 63.6029 45.2955 62.7367 45.2955 61.6682C45.2955 60.5997 44.449 59.7336 43.4048 59.7336C42.3606 59.7336 41.5142 60.5997 41.5142 61.6682C41.5142 62.7367 42.3606 63.6029 43.4048 63.6029Z" fill="#539356"/>
<path d="M49.9363 63.6029C50.9805 63.6029 51.827 62.7367 51.827 61.6682C51.827 60.5997 50.9805 59.7336 49.9363 59.7336C48.8921 59.7336 48.0457 60.5997 48.0457 61.6682C48.0457 62.7367 48.8921 63.6029 49.9363 63.6029Z" fill="#539356"/>
<path d="M108.543 60.212H103.905C103.813 60.2141 103.726 60.2521 103.662 60.3178C103.597 60.3835 103.562 60.4716 103.562 60.5634C103.562 60.6552 103.597 60.7434 103.662 60.8091C103.726 60.8748 103.813 60.9127 103.905 60.9149H108.543C108.636 60.9136 108.724 60.876 108.789 60.8102C108.853 60.7444 108.89 60.6558 108.89 60.5634C108.89 60.4711 108.853 60.3824 108.789 60.3167C108.724 60.2509 108.636 60.2133 108.543 60.212Z" fill="#539356"/>
<path d="M108.543 61.5319H103.904C103.813 61.5339 103.725 61.5718 103.661 61.6375C103.597 61.7032 103.561 61.7914 103.561 61.8833C103.561 61.9752 103.597 62.0634 103.661 62.1291C103.725 62.1948 103.813 62.2327 103.904 62.2347H108.543C108.636 62.2336 108.724 62.1961 108.789 62.1303C108.854 62.0645 108.89 61.9758 108.89 61.8833C108.89 61.7908 108.854 61.7021 108.789 61.6363C108.724 61.5705 108.636 61.533 108.543 61.5319Z" fill="#539356"/>
<path d="M108.543 62.8517H103.905C103.813 62.8539 103.726 62.8918 103.662 62.9575C103.597 63.0232 103.562 63.1113 103.562 63.2032C103.562 63.295 103.597 63.3831 103.662 63.4488C103.726 63.5145 103.813 63.5524 103.905 63.5546H108.543C108.636 63.5533 108.724 63.5157 108.789 63.4499C108.853 63.3841 108.89 63.2955 108.89 63.2032C108.89 63.1108 108.853 63.0221 108.789 62.9564C108.724 62.8906 108.636 62.853 108.543 62.8517Z" fill="#539356"/>
<path d="M220.379 140.787C220.519 141.195 220.785 141.548 221.138 141.796C221.491 142.043 221.913 142.172 222.344 142.165L230.761 141.948C231.195 141.939 231.615 141.79 231.958 141.524C232.3 141.257 232.547 140.886 232.662 140.467L233.853 127.717C234.275 127.909 234.736 128.004 235.199 127.994C235.602 127.984 235.999 127.895 236.368 127.731C236.736 127.567 237.069 127.333 237.347 127.04C237.625 126.748 237.842 126.403 237.987 126.027C238.132 125.65 238.201 125.249 238.191 124.846C238.181 124.442 238.092 124.045 237.928 123.676C237.764 123.307 237.53 122.974 237.238 122.696C236.946 122.418 236.602 122.2 236.226 122.055C235.849 121.91 235.448 121.841 235.045 121.851C234.86 121.85 234.675 121.87 234.494 121.908C234.296 121.695 234.057 121.525 233.79 121.41C233.523 121.295 233.235 121.237 232.945 121.24L219.997 121.574C219.89 121.578 219.783 121.591 219.678 121.614C219.394 121.667 219.125 121.78 218.888 121.946C218.651 122.112 218.453 122.327 218.306 122.576C218.16 122.825 218.068 123.102 218.037 123.39C218.007 123.677 218.038 123.968 218.129 124.242L220.379 140.787ZM234.097 126.852L234.945 123.814C235.041 123.463 235.043 123.092 234.951 122.74C234.992 122.74 235.029 122.721 235.07 122.721C235.651 122.709 236.213 122.928 236.633 123.33C237.053 123.732 237.297 124.285 237.31 124.867C237.324 125.448 237.106 126.012 236.706 126.433C236.305 126.855 235.754 127.1 235.173 127.115C234.797 127.127 234.425 127.036 234.097 126.852Z" fill="#2F2E41"/>
<path d="M219.678 121.614C219.954 123.193 223.055 124.303 226.784 124.11C230.213 123.951 233.017 122.746 233.531 121.318C233.341 121.261 233.143 121.235 232.945 121.24L219.997 121.574C219.89 121.578 219.783 121.591 219.678 121.614Z" fill="#539356"/>
<path d="M227.468 133.781C227.485 133.777 227.501 133.77 227.516 133.76L229.344 132.563C229.366 132.548 229.384 132.528 229.396 132.505C229.409 132.482 229.416 132.456 229.416 132.43C229.416 132.403 229.409 132.377 229.396 132.354C229.384 132.331 229.366 132.311 229.344 132.297L227.444 131.051C227.426 131.039 227.407 131.031 227.386 131.027C227.366 131.024 227.345 131.024 227.324 131.028C227.304 131.032 227.284 131.04 227.267 131.052C227.25 131.064 227.235 131.079 227.223 131.096C227.212 131.114 227.204 131.134 227.2 131.154C227.196 131.175 227.196 131.196 227.201 131.216C227.205 131.237 227.213 131.256 227.225 131.273C227.237 131.291 227.252 131.305 227.27 131.317L228.967 132.429L227.342 133.494C227.31 133.515 227.287 133.546 227.276 133.582C227.266 133.618 227.268 133.657 227.283 133.691C227.298 133.726 227.325 133.754 227.359 133.77C227.393 133.787 227.431 133.791 227.468 133.781Z" fill="#539356"/>
<path d="M224.581 133.915C224.611 133.907 224.639 133.89 224.66 133.866C224.681 133.843 224.695 133.813 224.699 133.782C224.703 133.751 224.698 133.719 224.684 133.69C224.67 133.662 224.648 133.638 224.621 133.623L222.936 132.656L224.564 131.445C224.581 131.432 224.595 131.417 224.606 131.399C224.616 131.381 224.624 131.361 224.627 131.34C224.63 131.32 224.629 131.299 224.624 131.278C224.618 131.258 224.609 131.239 224.597 131.222C224.585 131.206 224.569 131.192 224.551 131.181C224.533 131.17 224.513 131.163 224.493 131.16C224.472 131.157 224.451 131.158 224.431 131.163C224.411 131.168 224.392 131.177 224.375 131.19L222.552 132.545C222.53 132.561 222.513 132.582 222.502 132.606C222.491 132.63 222.486 132.656 222.488 132.682C222.489 132.709 222.497 132.734 222.511 132.757C222.525 132.779 222.544 132.798 222.567 132.811L224.463 133.898C224.498 133.919 224.541 133.925 224.581 133.915Z" fill="#539356"/>
<path d="M227.286 134.831C227.301 134.827 227.316 134.821 227.329 134.812C227.347 134.802 227.363 134.787 227.375 134.771C227.387 134.754 227.396 134.735 227.401 134.714C227.406 134.694 227.407 134.673 227.404 134.652C227.401 134.632 227.394 134.612 227.383 134.594L224.791 130.33C224.769 130.294 224.734 130.268 224.693 130.258C224.652 130.248 224.609 130.255 224.573 130.277C224.537 130.299 224.511 130.334 224.501 130.375C224.491 130.416 224.498 130.459 224.52 130.495L227.111 134.759C227.129 134.789 227.155 134.811 227.187 134.824C227.218 134.837 227.253 134.839 227.286 134.831Z" fill="#539356"/>
<path d="M81.6069 83.4531H67.566C66.9932 83.4531 66.5288 83.9179 66.5288 84.4912V85.8643C66.5288 86.4376 66.9932 86.9024 67.566 86.9024H81.6069C82.1797 86.9024 82.644 86.4376 82.644 85.8643V84.4912C82.644 83.9179 82.1797 83.4531 81.6069 83.4531Z" fill="#539356"/>
<path d="M89.7911 90.3518H59.3814C58.8086 90.3518 58.3442 90.8166 58.3442 91.3899V92.763C58.3442 93.3363 58.8086 93.8011 59.3814 93.8011H89.7911C90.3639 93.8011 90.8282 93.3363 90.8282 92.763V91.3899C90.8282 90.8166 90.3639 90.3518 89.7911 90.3518Z" fill="#E6E6E6"/>
<path d="M89.7911 97.2505H59.3814C58.8086 97.2505 58.3442 97.7153 58.3442 98.2886V99.6617C58.3442 100.235 58.8086 100.7 59.3814 100.7H89.7911C90.3639 100.7 90.8282 100.235 90.8282 99.6617V98.2886C90.8282 97.7153 90.3639 97.2505 89.7911 97.2505Z" fill="#E6E6E6"/>
<path d="M92.3691 120.351L92.438 120.569L92.4416 120.576L94.5149 126.886L96.8999 134.156L101.387 147.82L101.431 149.942V149.949L101.764 167.023L100.84 169.338L101.88 173.133C101.88 173.133 101.402 167.396 98.8355 170.691C97.382 172.563 95.682 174.478 94.2866 176.274C96.32 177.098 98.386 177.843 100.485 178.509C100.938 178.654 101.394 178.792 101.851 178.93C101.949 178.959 102.047 178.988 102.145 179.017C109.101 181.076 116.293 182.233 123.544 182.46C123.921 182.471 124.291 182.478 124.65 182.486C124.777 182.489 124.9 182.493 125.023 182.493C125.429 182.496 125.832 182.5 126.238 182.5C127.057 182.5 127.872 182.488 128.684 182.464C134.694 182.294 140.668 181.485 146.506 180.051C146.466 177.638 146.358 174.819 146.202 171.808C146.129 170.331 144.502 168.731 144.404 167.186C144.335 166.025 145.796 164.933 145.72 163.754C145.227 156.494 144.611 159.281 144.154 154.14C144.107 153.636 144.063 153.153 144.023 152.692C143.73 149.391 143.527 147.326 143.527 147.326L145.477 135.023L148.54 115.708L148.304 115.319L148.04 115.189L131.885 107.185L131.008 104.936C130.752 104.288 130.309 103.731 129.734 103.337C129.16 102.944 128.481 102.731 127.785 102.726L117.143 102.683C116.591 102.68 116.046 102.81 115.554 103.06C115.062 103.311 114.636 103.675 114.313 104.123L111.431 108.118L92.3691 120.351Z" fill="#539356"/>
<path d="M103.841 144.779L101.431 149.942L99.785 153.469L96.9542 168.304L95.537 169.809L94.3227 164.479L81.6141 167.304C81.1972 164.985 81.5025 167.382 81.2451 164.839C81.3176 164.766 81.3937 164.694 81.4698 164.621C81.6728 164.433 81.8432 164.255 81.8396 164.084C81.6946 155.312 82.1295 140.382 85.7614 131.337C86.3302 129.861 87.0802 128.46 87.9941 127.169C88.0666 127.071 88.1355 126.973 88.2044 126.875C89.8789 124.527 90.9373 122.216 92.4379 120.573V120.569C92.4473 120.562 92.4558 120.553 92.4633 120.544C92.4688 120.541 92.4737 120.537 92.4778 120.533L102.786 115.062L103.228 127.499L103.544 136.438L103.841 144.779Z" fill="#539356"/>
<path d="M141.011 146.246L144.022 152.694L145.073 154.94L147.903 169.773L149.315 171.275L150.532 165.947L151.104 165.829L161.417 163.691L164.423 173.247C165.101 172.117 165.368 170.788 165.179 169.483C164.99 168.179 164.357 166.98 163.387 166.089C163.182 165.903 163.011 165.722 163.016 165.551C163.187 155.233 162.556 136.392 156.862 128.638C155.054 126.177 153.968 123.726 152.39 122.013C152.385 122.009 152.385 122.004 152.38 122.004L148.538 115.707L148.304 115.321L148.04 115.189L141.011 146.246Z" fill="#539356"/>
<path d="M122.771 99.6513C130.591 99.6513 136.929 93.3066 136.929 85.4801C136.929 77.6535 130.591 71.3088 122.771 71.3088C114.952 71.3088 108.614 77.6535 108.614 85.4801C108.614 93.3066 114.952 99.6513 122.771 99.6513Z" fill="#FFB6B6"/>
<path d="M141.907 75.5815C141.798 75.4641 141.665 75.3701 141.518 75.3051C141.372 75.2401 141.213 75.2054 141.053 75.203L141.266 74.6115C141.335 74.4252 141.354 74.2237 141.32 74.0277C141.286 73.8317 141.201 73.6483 141.073 73.4962C140.945 73.3441 140.778 73.2288 140.591 73.1621C140.404 73.0955 140.203 73.0798 140.007 73.1167L139.232 73.2662L139.305 72.7478C139.333 72.5547 139.31 72.3577 139.239 72.176C139.168 71.9944 139.051 71.8344 138.899 71.7118C138.748 71.5892 138.567 71.5083 138.374 71.4769C138.182 71.4455 137.985 71.4648 137.802 71.5329C137.636 71.5983 137.457 71.6258 137.279 71.6131C137.101 71.6004 136.928 71.548 136.773 71.4597C136.617 71.3741 136.481 71.2555 136.376 71.1121C136.271 70.9687 136.198 70.8041 136.163 70.6296L135.893 69.3257L135.864 69.2557C134.549 67.0612 132.019 65.4647 128.925 64.8795C126.17 64.3547 123.345 64.6219 120.622 64.8731C119.542 64.9749 118.322 65.0894 117.305 65.7127C116.441 66.2471 115.71 67.3157 115.859 68.3938C113.175 67.5701 110.296 69.2144 108.869 71.288C107.179 73.7559 106.903 76.8473 106.858 79.2644C106.737 84.9827 107.916 89.6611 110.353 93.1722C110.531 93.4266 110.576 93.9578 110.928 94.1359L110.855 94.0182C111.249 94.2154 111.649 94.5334 111.5 94.8737C111.071 95.8533 113.921 98.0191 115.929 98.7347C119.593 100.042 124.464 99.9305 127.889 99.4598L128.01 98.6488C129.246 98.4803 130.116 98.159 130.361 97.6565C130.793 97.2876 131.162 96.9568 131.482 96.6515L131.486 96.6484C131.492 96.642 131.505 96.6325 131.511 96.6261C133.058 95.1409 133.417 94.2949 133.58 93.0068C133.735 91.7442 133.459 90.4625 133.176 89.308C139.13 90.2304 130.831 82.96 136.379 81.5543C136.442 81.5346 136.507 81.5187 136.573 81.5066C136.735 81.4684 136.897 81.4302 137.052 81.3857C137.803 81.1818 138.521 80.8746 139.188 80.4729C140.738 79.5284 141.25 78.2753 142.05 76.8632C142.166 76.6621 142.214 76.4294 142.189 76.1989C142.163 75.9684 142.064 75.7521 141.907 75.5815Z" fill="#2F2E41"/>
<path d="M172.845 147.255C172.842 147.811 172.836 148.59 172.81 149.554C172.807 149.688 172.804 149.824 172.801 149.964C172.759 151.736 172.718 153.221 172.651 154.872C172.648 154.986 172.645 155.097 172.639 155.212C172.55 157.515 172.41 160.196 172.168 164.441C171.72 172.284 170.939 165.52 170.154 168.271C170.116 168.407 170.075 168.57 170.036 168.76C169.918 169.453 169.717 170.129 169.439 170.774C169.023 171.022 168.594 171.26 168.171 171.499C166.967 172.17 165.744 172.815 164.511 173.429C163.818 173.773 163.123 174.11 162.423 174.434C162.312 174.485 162.204 174.536 162.096 174.584C158.517 176.241 154.828 177.65 151.055 178.801C150.318 179.024 149.584 179.24 148.84 179.44C148.065 179.656 147.29 179.86 146.505 180.051C140.667 181.485 134.693 182.295 128.683 182.465C127.873 182.49 127.056 182.5 126.237 182.5C125.83 182.5 125.43 182.497 125.023 182.493C124.899 182.493 124.775 182.49 124.651 182.487C124.292 182.477 123.92 182.471 123.545 182.462C116.294 182.235 109.102 181.078 102.146 179.017L101.851 178.931C101.393 178.791 100.939 178.655 100.484 178.508C98.3872 177.844 96.3209 177.099 94.2853 176.276C92.7316 175.649 91.1958 174.977 89.6781 174.259C89.6643 174.256 89.6513 174.249 89.64 174.24C89.3223 174.094 89.0014 173.941 88.6836 173.785C88.6423 173.763 88.5978 173.741 88.5534 173.719C87.3682 173.14 86.1957 172.533 85.036 171.899C84.0606 169.657 82.688 169.228 81.8364 167.256C81.5886 166.67 81.4095 166.058 81.3026 165.431C81.3026 165.424 81.2995 165.418 81.2995 165.408C81.3884 166.591 80.9214 163.309 81.2963 165.396C81.2931 165.357 81.2899 165.316 81.2868 165.268C81.2772 165.154 81.2645 165.014 81.2455 164.839C80.1556 154.188 80.2255 142.007 79.7521 131.97C79.7203 131.321 79.6875 130.7 79.6536 130.106C79.6441 129.909 79.6314 129.715 79.6187 129.524C79.6409 129.467 79.6663 129.406 79.6949 129.349C79.701 129.333 79.7084 129.317 79.7171 129.301C79.7265 129.282 79.7371 129.263 79.7489 129.244C79.7553 129.235 79.7648 129.222 79.7712 129.212C79.7758 129.201 79.7811 129.191 79.7871 129.181C79.8156 129.136 79.8474 129.088 79.8824 129.044C79.8983 129.025 79.911 129.009 79.9269 128.993C79.9378 128.977 79.9506 128.962 79.965 128.948C79.9747 128.933 79.9865 128.919 79.9999 128.907C80.0126 128.894 80.0253 128.878 80.0412 128.863C80.048 128.853 80.0567 128.844 80.0667 128.837C80.0918 128.808 80.1194 128.782 80.1493 128.758C80.2626 128.653 80.3837 128.557 80.5115 128.471C80.556 128.443 80.6036 128.414 80.6481 128.382C80.9683 128.191 81.3055 128.029 81.6553 127.899C81.7761 127.854 81.8968 127.813 82.0271 127.768C82.0747 127.756 82.1192 127.74 82.1669 127.724C82.2368 127.702 82.3067 127.679 82.3798 127.664C82.742 127.555 83.1328 127.463 83.5554 127.377C83.6062 127.368 83.6602 127.358 83.7142 127.345C83.7905 127.33 83.8699 127.317 83.9494 127.304C84.0574 127.285 84.1686 127.266 84.2798 127.247C85.2235 127.097 86.2943 126.986 87.4762 126.913C87.5874 126.907 87.6986 126.9 87.8099 126.894C87.9401 126.888 88.0704 126.881 88.2038 126.875C88.315 126.868 88.4294 126.865 88.5438 126.862C88.655 126.856 88.7694 126.853 88.887 126.849C89.2079 126.84 89.5383 126.83 89.8751 126.824C90.8347 126.805 91.8451 126.811 92.9063 126.833C93.3988 126.846 93.9008 126.859 94.4156 126.881C94.4505 126.881 94.4823 126.884 94.5141 126.884C94.9621 126.9 95.4132 126.919 95.8771 126.945C96.2012 126.961 96.5285 126.977 96.8557 126.996C97.1639 127.015 97.4753 127.034 97.7899 127.056C98.0345 127.069 98.2792 127.088 98.527 127.104C98.7367 127.12 98.9464 127.136 99.1561 127.148L99.4421 127.167C99.5978 127.18 99.7535 127.19 99.9124 127.206C100.262 127.234 100.611 127.263 100.967 127.291C101.32 127.323 101.679 127.355 102.038 127.387C102.397 127.419 102.759 127.454 103.121 127.489C103.16 127.492 103.195 127.495 103.23 127.498C103.56 127.533 103.89 127.565 104.224 127.6C104.3 127.606 104.38 127.613 104.456 127.622C104.774 127.654 105.098 127.692 105.419 127.726C105.518 127.736 105.616 127.747 105.715 127.758C105.966 127.785 106.214 127.809 106.467 127.838C106.801 127.877 107.141 127.912 107.471 127.956C107.729 127.985 107.986 128.013 108.243 128.045C108.647 128.093 109.057 128.144 109.467 128.198C109.622 128.217 109.778 128.236 109.934 128.258C111.103 128.405 112.285 128.567 113.486 128.735C115.307 128.993 117.156 129.273 119.018 129.575C120.883 129.877 122.759 130.196 124.645 130.532C125.121 130.618 125.598 130.704 126.078 130.793C126.294 130.834 126.51 130.876 126.726 130.917C127.095 130.984 127.463 131.054 127.832 131.124C128.2 131.194 128.569 131.264 128.937 131.337C129.376 131.423 129.818 131.509 130.256 131.594C133.144 132.167 136.016 132.778 138.819 133.417C139.28 133.522 139.74 133.63 140.198 133.735C141.113 133.948 142.02 134.164 142.918 134.384C143.166 134.441 143.41 134.501 143.655 134.562C144.265 134.714 144.875 134.867 145.475 135.023L145.58 135.052C146.022 135.16 146.454 135.271 146.886 135.385C147.906 135.653 148.909 135.923 149.895 136.196C150.55 136.378 151.197 136.561 151.837 136.747C152.793 137.023 153.73 137.303 154.642 137.586C154.868 137.656 155.093 137.726 155.316 137.793C155.983 138 156.641 138.21 157.279 138.42C157.788 138.585 158.283 138.754 158.773 138.922C159.262 139.091 159.742 139.259 160.212 139.428C160.514 139.536 160.813 139.65 161.111 139.759C161.54 139.918 161.963 140.077 162.376 140.236C162.503 140.283 162.627 140.334 162.751 140.382C162.83 140.417 162.906 140.445 162.983 140.477C163.132 140.538 163.285 140.595 163.431 140.655C163.58 140.713 163.726 140.773 163.872 140.837C164.015 140.894 164.161 140.954 164.301 141.015C164.444 141.072 164.584 141.132 164.724 141.196C164.841 141.244 164.956 141.295 165.067 141.346C165.293 141.444 165.518 141.543 165.737 141.644C165.845 141.695 165.953 141.743 166.062 141.794L166.309 141.908C166.344 141.928 166.379 141.943 166.414 141.959C166.494 141.997 166.576 142.039 166.656 142.077C166.84 142.163 167.021 142.255 167.199 142.341C167.437 142.462 167.669 142.583 167.892 142.7C168.117 142.821 168.336 142.942 168.546 143.06C168.581 143.079 168.613 143.098 168.648 143.117C168.696 143.142 168.743 143.171 168.791 143.197C168.953 143.289 169.109 143.384 169.264 143.476C169.569 143.664 169.858 143.848 170.129 144.033C170.189 144.074 170.246 144.116 170.306 144.154C170.507 144.297 170.697 144.437 170.875 144.58C170.875 144.583 170.875 144.583 170.878 144.583C170.939 144.628 170.996 144.675 171.053 144.72C171.101 144.764 171.152 144.803 171.199 144.847C171.364 144.99 171.517 145.127 171.657 145.267C171.704 145.31 171.748 145.356 171.79 145.404C171.809 145.419 171.826 145.436 171.841 145.455C171.905 145.518 171.962 145.582 172.016 145.645C172.024 145.654 172.032 145.664 172.038 145.674C172.114 145.763 172.184 145.852 172.251 145.941C172.283 145.986 172.318 146.03 172.346 146.075C172.384 146.129 172.423 146.186 172.454 146.24C172.483 146.285 172.508 146.332 172.534 146.377C172.601 146.492 172.659 146.612 172.705 146.736C172.741 146.821 172.77 146.908 172.791 146.997C172.815 147.082 172.833 147.168 172.845 147.255Z" fill="#2F2E41"/>
<path opacity="0.2" d="M172.845 147.255C172.842 147.811 172.836 148.59 172.81 149.554C172.807 149.688 172.801 149.824 172.798 149.964C172.766 151.316 172.718 152.986 172.651 154.872C172.648 154.986 172.645 155.097 172.639 155.212C172.55 157.515 172.41 160.196 172.168 164.441C171.72 172.284 170.939 165.52 170.154 168.271C167.974 166.929 165.585 165.523 163.03 164.079C162.57 163.818 162.105 163.556 161.636 163.293C156.526 160.441 150.82 157.451 144.862 154.49C144.627 154.372 144.389 154.255 144.154 154.14C130.507 147.388 115.612 140.821 103.544 136.438C101.215 135.592 98.9909 134.829 96.9002 134.158C92.4964 132.749 88.69 131.763 85.7605 131.337C82.7102 130.892 80.6036 131.051 79.7521 131.97C79.7203 131.321 79.6875 130.7 79.6536 130.106C79.6409 129.909 79.6282 129.715 79.6155 129.524C79.6351 129.472 79.6606 129.422 79.6852 129.371C79.6888 129.364 79.6913 129.356 79.6949 129.349C79.701 129.333 79.7084 129.317 79.7172 129.301C79.7265 129.282 79.7371 129.263 79.7489 129.244C79.7593 129.222 79.772 129.2 79.7871 129.181C79.8157 129.136 79.8474 129.088 79.8824 129.044C79.9081 129.01 79.9357 128.979 79.965 128.948C79.9747 128.933 79.9865 128.919 79.9999 128.907C80.0127 128.894 80.0254 128.878 80.0412 128.862C80.048 128.852 80.0567 128.844 80.0667 128.837C80.0918 128.808 80.1194 128.782 80.1493 128.758C80.2626 128.653 80.3837 128.557 80.5115 128.471C80.556 128.443 80.6036 128.414 80.6481 128.382C80.9683 128.191 81.3055 128.029 81.6553 127.899C81.7761 127.854 81.8968 127.813 82.0271 127.768C82.0747 127.756 82.1192 127.74 82.1669 127.724C82.2368 127.702 82.3067 127.679 82.3798 127.663C82.742 127.555 83.1328 127.463 83.5554 127.377C83.6825 127.352 83.8159 127.326 83.9494 127.304C84.0574 127.285 84.1686 127.266 84.2798 127.247C85.2235 127.097 86.2943 126.986 87.4762 126.913C87.5874 126.907 87.6987 126.9 87.8099 126.894C87.9401 126.887 88.0704 126.881 88.2038 126.875C88.3151 126.868 88.4294 126.865 88.5438 126.862C88.655 126.856 88.7694 126.852 88.887 126.849C89.2079 126.84 89.5383 126.83 89.8751 126.824C90.8347 126.808 91.8451 126.814 92.9063 126.837C93.3988 126.846 93.9008 126.862 94.4156 126.884C94.4473 126.884 94.4823 126.887 94.5141 126.887C94.9621 126.9 95.4164 126.922 95.8771 126.945C96.2012 126.961 96.5285 126.977 96.8557 126.996C97.1639 127.015 97.4753 127.034 97.7899 127.056C98.0346 127.069 98.2792 127.088 98.527 127.104C98.7367 127.12 98.9464 127.136 99.1562 127.148C99.4072 127.167 99.6582 127.186 99.9124 127.206C100.262 127.234 100.611 127.263 100.967 127.291C101.32 127.323 101.679 127.355 102.038 127.387C102.397 127.419 102.759 127.454 103.121 127.489C103.16 127.492 103.195 127.495 103.23 127.498C103.56 127.533 103.89 127.565 104.224 127.6C106.073 127.788 107.976 128.007 109.934 128.258C111.103 128.408 112.287 128.568 113.486 128.738C115.307 128.996 117.156 129.276 119.018 129.575C120.883 129.877 122.759 130.196 124.645 130.532C125.121 130.618 125.598 130.704 126.078 130.793C126.662 130.901 127.247 131.011 127.832 131.124C128.2 131.194 128.569 131.264 128.937 131.337C129.376 131.423 129.818 131.509 130.256 131.594C133.144 132.167 136.017 132.778 138.819 133.417C139.28 133.522 139.74 133.63 140.198 133.735C141.113 133.948 142.02 134.164 142.918 134.384C143.166 134.444 143.41 134.504 143.655 134.565C144.268 134.718 144.875 134.87 145.476 135.023V135.026C145.51 135.032 145.545 135.042 145.58 135.052C146.019 135.163 146.454 135.274 146.886 135.389C147.906 135.656 148.909 135.925 149.895 136.196C150.55 136.381 151.198 136.562 151.837 136.747C152.793 137.027 153.73 137.306 154.642 137.586C154.868 137.656 155.093 137.726 155.316 137.793C155.983 138.003 156.638 138.212 157.279 138.42C157.788 138.585 158.283 138.753 158.773 138.922C159.262 139.091 159.742 139.259 160.212 139.428C160.517 139.536 160.816 139.647 161.111 139.755C161.543 139.914 161.963 140.073 162.376 140.236C162.503 140.283 162.627 140.334 162.751 140.382C162.983 140.471 163.208 140.563 163.431 140.655C163.58 140.713 163.726 140.773 163.872 140.837C164.015 140.894 164.161 140.954 164.301 141.015C164.444 141.072 164.584 141.132 164.724 141.196C164.841 141.244 164.956 141.295 165.067 141.345C165.293 141.444 165.518 141.543 165.737 141.644C165.845 141.695 165.954 141.743 166.062 141.794L166.309 141.908C166.344 141.928 166.379 141.943 166.414 141.959C166.684 142.087 166.945 142.214 167.199 142.341C167.437 142.462 167.669 142.583 167.892 142.7C168.155 142.84 168.406 142.977 168.648 143.117C168.696 143.142 168.743 143.171 168.791 143.196C168.953 143.289 169.109 143.384 169.264 143.476C169.569 143.664 169.858 143.848 170.129 144.033C170.395 144.217 170.643 144.399 170.875 144.58C170.875 144.583 170.875 144.583 170.878 144.583C170.99 144.672 171.098 144.761 171.199 144.847C171.365 144.99 171.517 145.127 171.657 145.267C171.704 145.31 171.748 145.356 171.79 145.404C171.809 145.419 171.826 145.436 171.841 145.455C171.908 145.528 171.975 145.601 172.038 145.674C172.114 145.763 172.184 145.852 172.251 145.941C172.283 145.986 172.318 146.03 172.346 146.075C172.384 146.129 172.423 146.186 172.454 146.24C172.483 146.285 172.508 146.332 172.534 146.377C172.601 146.491 172.659 146.612 172.705 146.736C172.74 146.821 172.769 146.908 172.791 146.997C172.815 147.082 172.833 147.168 172.845 147.255Z" fill="black"/>
</g>
<defs>
<clipPath id="clip0_4732_1574">
<rect width="250" height="182" fill="white" transform="translate(0 0.5)"/>
</clipPath>
</defs>
</svg>
